<mxfile host="www.draw.io" modified="2019-12-24T08:45:16.723Z" agent="Mozilla/5.0 (Macintosh; Intel Mac OS X 10_14_6) AppleWebKit/537.36 (KHTML, like Gecko) Chrome/79.0.3945.88 Safari/537.36" etag="VFo1zjhhxtxDVaWTr0_u" version="12.4.3" type="github" pages="1">
  <diagram id="rzaDFWZ3M5f2pbAwsEjs" name="Page-1">
    <mxGraphModel dx="815" dy="521" grid="1" gridSize="10" guides="1" tooltips="1" connect="1" arrows="1" fold="1" page="1" pageScale="1" pageWidth="827" pageHeight="1169" math="0" shadow="0">
      <root>
        <mxCell id="0"/>
        <mxCell id="1" parent="0"/>
        <mxCell id="kZvjfdMpgT1Wo_t2GskR-1" value="海量数据存储" style="ellipse;whiteSpace=wrap;html=1;aspect=fixed;fontSize=20;fillColor=#dae8fc;strokeColor=#6c8ebf;" vertex="1" parent="1">
          <mxGeometry x="40" y="40" width="160" height="160" as="geometry"/>
        </mxCell>
        <mxCell id="kZvjfdMpgT1Wo_t2GskR-2" value="替代传统分布式文件系统" style="ellipse;whiteSpace=wrap;html=1;aspect=fixed;fontSize=20;fillColor=#dae8fc;strokeColor=#6c8ebf;" vertex="1" parent="1">
          <mxGeometry x="480" y="40" width="160" height="160" as="geometry"/>
        </mxCell>
        <mxCell id="kZvjfdMpgT1Wo_t2GskR-3" value="POSIX语义要求较高应用" style="ellipse;whiteSpace=wrap;html=1;aspect=fixed;fontSize=20;fillColor=#dae8fc;strokeColor=#6c8ebf;" vertex="1" parent="1">
          <mxGeometry x="40" y="280" width="160" height="160" as="geometry"/>
        </mxCell>
        <mxCell id="kZvjfdMpgT1Wo_t2GskR-4" value="大小文件性能要求较高应用" style="ellipse;whiteSpace=wrap;html=1;aspect=fixed;fontSize=20;fillColor=#dae8fc;strokeColor=#6c8ebf;" vertex="1" parent="1">
          <mxGeometry x="480" y="280" width="160" height="160" as="geometry"/>
        </mxCell>
        <mxCell id="kZvjfdMpgT1Wo_t2GskR-5" value="ChubaoFS" style="ellipse;whiteSpace=wrap;html=1;aspect=fixed;fontSize=20;fillColor=#f5f5f5;strokeColor=#666666;fontColor=#333333;" vertex="1" parent="1">
          <mxGeometry x="280" y="180" width="120" height="120" as="geometry"/>
        </mxCell>
        <mxCell id="kZvjfdMpgT1Wo_t2GskR-6" value="" style="html=1;shadow=0;dashed=0;align=center;verticalAlign=middle;shape=mxgraph.arrows2.jumpInArrow;dy=15;dx=38;arrowHead=55;fontSize=20;" vertex="1" parent="1">
          <mxGeometry x="374" y="110" width="100" height="70" as="geometry"/>
        </mxCell>
        <mxCell id="kZvjfdMpgT1Wo_t2GskR-7" value="" style="html=1;shadow=0;dashed=0;align=center;verticalAlign=middle;shape=mxgraph.arrows2.jumpInArrow;dy=15;dx=38;arrowHead=55;fontSize=20;flipH=0;flipV=1;" vertex="1" parent="1">
          <mxGeometry x="374" y="300" width="100" height="70" as="geometry"/>
        </mxCell>
        <mxCell id="kZvjfdMpgT1Wo_t2GskR-8" value="" style="html=1;shadow=0;dashed=0;align=center;verticalAlign=middle;shape=mxgraph.arrows2.jumpInArrow;dy=15;dx=38;arrowHead=55;fontSize=20;flipH=1;" vertex="1" parent="1">
          <mxGeometry x="210" y="110" width="100" height="70" as="geometry"/>
        </mxCell>
        <mxCell id="kZvjfdMpgT1Wo_t2GskR-9" value="" style="html=1;shadow=0;dashed=0;align=center;verticalAlign=middle;shape=mxgraph.arrows2.jumpInArrow;dy=15;dx=38;arrowHead=55;fontSize=20;flipH=1;flipV=1;" vertex="1" parent="1">
          <mxGeometry x="210" y="300" width="100" height="70" as="geometry"/>
        </mxCell>
      </root>
    </mxGraphModel>
  </diagram>
</mxfile>
